<svg xmlns="http://www.w3.org/2000/svg" viewBox="0 0 24 24" fill="none"><path fill="currentColor" d="M8 5.75A.76.76 0 0 1 7.25 5V2c0-.41.34-.75.75-.75s.75.34.75.75v3c0 .41-.34.75-.75.75ZM16 5.75a.76.76 0 0 1-.75-.75V2c0-.41.34-.75.75-.75s.75.34.75.75v3c0 .41-.34.75-.75.75ZM8.5 14.5a1 1 0 0 1-.38-.08 1.03 1.03 0 0 1-.33-.21 1 1 0 0 1-.21-1.09c.05-.12.12-.23.21-.33a1.03 1.03 0 0 1 1.42 0 1.05 1.05 0 0 1 .27.91.64.64 0 0 1-.06.18.76.76 0 0 1-.09.18l-.12.15c-.19.18-.45.29-.71.29ZM12 14.5a1 1 0 0 1-.38-.08 1.03 1.03 0 0 1-.33-.21 1 1 0 0 1-.21-1.09c.05-.12.12-.23.21-.33.1-.09.2-.16.33-.21a1 1 0 0 1 1.09.21 1.05 1.05 0 0 1 .27.91.64.64 0 0 1-.06.18.76.76 0 0 1-.09.18l-.12.15c-.19.18-.45.29-.71.29ZM15.5 14.5a1 1 0 0 1-.38-.08 1.03 1.03 0 0 1-.33-.21l-.12-.15a.76.76 0 0 1-.09-.18.64.64 0 0 1-.06-.18 1.05 1.05 0 0 1 .27-.91c.1-.09.2-.16.33-.21a1 1 0 0 1 1.09.21c.18.19.29.45.29.71l-.02.2a.64.64 0 0 1-.06.18.76.76 0 0 1-.09.18l-.12.15c-.19.18-.45.29-.71.29ZM8.5 18a1 1 0 0 1-.38-.08 1.16 1.16 0 0 1-.33-.21A1.05 1.05 0 0 1 7.5 17a1 1 0 0 1 .08-.38.93.93 0 0 1 .21-.33 1.05 1.05 0 0 1 1.42 0c.18.19.29.45.29.71 0 .26-.11.52-.29.71-.19.18-.45.29-.71.29ZM12 18c-.26 0-.52-.11-.71-.29A1.05 1.05 0 0 1 11 17a1 1 0 0 1 .08-.38.93.93 0 0 1 .21-.33 1.05 1.05 0 0 1 1.42 0c.09.09.16.2.21.33A1 1 0 0 1 13 17c0 .26-.11.52-.29.71-.19.18-.45.29-.71.29ZM15.5 18c-.26 0-.52-.11-.71-.29a.93.93 0 0 1-.21-.33 1 1 0 0 1-.08-.38 1 1 0 0 1 .08-.38.93.93 0 0 1 .21-.33 1 1 0 0 1 1.09-.21l.18.09.15.12c.18.19.29.45.29.71 0 .26-.11.52-.29.71-.19.18-.45.29-.71.29ZM20.5 9.84h-17a.76.76 0 0 1-.75-.75c0-.41.34-.75.75-.75h17c.41 0 .75.34.75.75s-.34.75-.75.75Z"/><path fill="currentColor" d="M16 22.75H8c-3.65 0-5.75-2.1-5.75-5.75V8.5c0-3.65 2.1-5.75 5.75-5.75h8c3.65 0 5.75 2.1 5.75 5.75V17c0 3.65-2.1 5.75-5.75 5.75ZM8 4.25c-2.86 0-4.25 1.39-4.25 4.25V17c0 2.86 1.39 4.25 4.25 4.25h8c2.86 0 4.25-1.39 4.25-4.25V8.5c0-2.86-1.39-4.25-4.25-4.25H8Z"/></svg>