<svg xmlns="http://www.w3.org/2000/svg" viewBox="0 0 24 24" fill="none"><path fill="currentColor" d="M9.99 22.55c-.05 0-.1 0-.15-.02a10.74 10.74 0 0 1-8.1-7.34c-.12-.4.1-.82.49-.94.4-.12.82.1.94.49a9.22 9.22 0 0 0 6.97 6.31c.41.08.67.48.58.89a.76.76 0 0 1-.73.61ZM21.95 11.73a.76.76 0 0 1-.75-.67A9.22 9.22 0 0 0 12 2.75a9.21 9.21 0 0 0-9.2 8.3.74.74 0 0 1-.82.67.75.75 0 0 1-.67-.82C1.87 5.4 6.47 1.25 12 1.25a10.7 10.7 0 0 1 10.69 9.65.75.75 0 0 1-.67.82l-.07.01ZM14.01 22.55a.74.74 0 0 1-.73-.6.74.74 0 0 1 .58-.88 9.24 9.24 0 0 0 6.96-6.27c.12-.4.55-.62.94-.49.4.12.61.55.49.94a10.76 10.76 0 0 1-8.09 7.29l-.15.01Z"/></svg>