<svg xmlns="http://www.w3.org/2000/svg" viewBox="0 0 24 24" fill="none"><path fill="currentColor" fill-rule="evenodd" d="M8.1 6.75h11.8c1.02 0 1.85.83 1.85 1.85v11.8c0 1.02-.83 1.85-1.85 1.85H8.1a1.85 1.85 0 0 1-1.85-1.85V8.6c0-1.02.83-1.85 1.85-1.85Zm11.8 1.5H8.1c-.2 0-.35.16-.35.35v11.8c0 .2.16.35.35.35h11.8c.2 0 .35-.16.35-.35V8.6c0-.2-.16-.35-.35-.35Z" clip-rule="evenodd"/><path fill="currentColor" d="M15 2.75a2.75 2.75 0 0 1 2.75 2.58V7.5a.75.75 0 0 1-1.5.1V5.5c0-.65-.5-1.18-1.12-1.24L15 4.25H5c-.65 0-1.18.5-1.24 1.12l-.01.13v10c0 .65.5 1.18 1.12 1.24l.13.01h2a.75.75 0 0 1 .1 1.5H5a2.75 2.75 0 0 1-2.74-2.58l-.01-.17v-10a2.75 2.75 0 0 1 2.58-2.74L5 2.75h10Z"/></svg>