<svg xmlns="http://www.w3.org/2000/svg" viewBox="0 0 36 36" fill="none"><path fill="currentColor" fill-rule="evenodd" d="M10.5 5.63h15a7.13 7.13 0 0 1 7.13 7.12v10.5a7.13 7.13 0 0 1-7.13 7.13h-15a7.13 7.13 0 0 1-7.13-7.13v-10.5a7.12 7.12 0 0 1 7.13-7.13Zm15 2.25h-15a4.87 4.87 0 0 0-4.88 4.87v10.5c0 2.7 2.19 4.88 4.88 4.88h15c2.7 0 4.88-2.19 4.88-4.88v-10.5c0-2.7-2.19-4.88-4.88-4.88Z" clip-rule="evenodd"/><path fill="currentColor" d="M9.47 13.03c.23-.53.8-.79 1.34-.64l.14.05 6.3 2.75c.41.18.87.2 1.3.08l.2-.07 6.3-2.73a1.12 1.12 0 0 1 1.03 2l-.13.07-6.3 2.72c-.96.41-2.03.45-3 .11l-.3-.11-6.3-2.75a1.13 1.13 0 0 1-.58-1.48Z"/></svg>
