<svg width="24" height="24" viewBox="0 0 24 24" fill="none" xmlns="http://www.w3.org/2000/svg">
<path d="M10.0618 8.79937C10.4181 8.58808 10.8782 8.7056 11.0895 9.06187C11.3008 9.41814 11.1832 9.87824 10.827 10.0895C10.0184 10.5691 9.59289 11.5005 9.75975 12.4257C9.9266 13.3508 10.6507 14.0749 11.5759 14.2418C12.501 14.4086 13.4324 13.9831 13.912 13.1745C14.1233 12.8183 14.5834 12.7007 14.9396 12.912C15.2959 13.1233 15.4134 13.5834 15.2021 13.9397C14.4031 15.287 12.8511 15.996 11.3096 15.718C9.7681 15.4399 8.56158 14.2334 8.28356 12.6919C8.00554 11.1504 8.71455 9.5984 10.0618 8.79937Z" fill="#323232"/>
<path d="M6.87071 5.56042C7.23646 5.36601 7.69057 5.50492 7.88498 5.87067C8.07939 6.23643 7.94048 6.69054 7.57472 6.88494C6.08293 7.67787 4.87438 8.91476 4.11859 10.4198C3.62715 11.4159 3.62715 12.584 4.11131 13.5658C5.63539 16.4946 8.68552 18.3088 12.0023 18.25C14.0017 18.2561 15.9478 17.6048 17.5408 16.3965C17.8709 16.1462 18.3413 16.2108 18.5916 16.5408C18.8419 16.8708 18.7773 17.3413 18.4473 17.5916C16.5922 18.9987 14.3261 19.757 12.0133 19.7498C8.14326 19.8187 4.56744 17.6918 2.7734 14.2438C2.07555 12.8293 2.07555 11.1706 2.77575 9.7514C3.67342 7.96378 5.10437 6.49927 6.87071 5.56042Z" fill="#323232"/>
<path d="M11.9866 4.25016C15.8567 4.18124 19.4326 6.30818 21.2266 9.7562C21.9245 11.1707 21.9245 12.8294 21.2276 14.2418L21.1961 14.3029L21.0869 14.4841C20.8934 14.8503 20.4396 14.9903 20.0734 14.7968C19.7071 14.6032 19.5671 14.1495 19.7607 13.7832L19.8015 13.7103L19.8814 13.5802C20.3729 12.5841 20.3729 11.416 19.8887 10.4342C18.4108 7.59414 15.4979 5.80211 12.3005 5.74983L11.9445 5.75076L11.7364 5.76368L11.3841 5.79304C10.9708 5.82027 10.6136 5.50728 10.5864 5.09396C10.5592 4.68065 10.8722 4.32351 11.2855 4.29628L11.7321 4.25952L11.9053 4.25107L11.9866 4.25016Z" fill="#323232"/>
<path d="M3.46967 2.46967C3.73594 2.2034 4.1526 2.1792 4.44621 2.39705L4.53033 2.46967L21.5303 19.4697C21.8232 19.7626 21.8232 20.2374 21.5303 20.5303C21.2641 20.7966 20.8474 20.8208 20.5538 20.6029L20.4697 20.5303L3.46967 3.53033C3.17678 3.23744 3.17678 2.76256 3.46967 2.46967Z" fill="#323232"/>
</svg>
