<svg width="24" height="24" viewBox="0 0 24 24" fill="none" xmlns="http://www.w3.org/2000/svg"> <path fill-rule="evenodd" clip-rule="evenodd" d="M2.45828 11.1753C4.62322 7.1715 8.40361 4.25 12 4.25C15.5966 4.25 19.3771 7.17182 21.5421 11.1769C21.819 11.6902 21.819 12.3108 21.5417 12.8247C19.3768 16.8285 15.5964 19.75 12 19.75C8.40338 19.75 4.62297 16.8282 2.45795 12.8231C2.18103 12.3098 2.18103 11.6892 2.45828 11.1753ZM20.2222 11.8897C18.2949 8.32433 14.9641 5.75 12 5.75C9.03608 5.75 5.70524 8.32409 3.77808 11.8881C3.74099 11.9568 3.74099 12.0422 3.77778 12.1103C5.7051 15.6757 9.0359 18.25 12 18.25C14.9639 18.25 18.2948 15.6759 20.222 12.1119C20.259 12.0432 20.259 11.9578 20.2222 11.8897Z" fill="#323232"/> <path fill-rule="evenodd" clip-rule="evenodd" d="M14.6264 9.3736C13.1759 7.92308 10.8241 7.92308 9.37357 9.3736C7.92304 10.8241 7.92304 13.1759 9.37357 14.6264C10.8241 16.0769 13.1759 16.0769 14.6264 14.6264C16.0769 13.1759 16.0769 10.8241 14.6264 9.3736ZM10.3837 10.3838C11.2339 9.53366 12.587 9.49318 13.485 10.2623L13.6162 10.3838L13.7377 10.5149C14.5068 11.413 14.4663 12.7661 13.6162 13.6162C12.7236 14.5089 11.2764 14.5089 10.3837 13.6162C9.49112 12.7236 9.49112 11.2764 10.3837 10.3838Z" fill="#323232"/> </svg>