<svg xmlns="http://www.w3.org/2000/svg" viewBox="0 0 24 24" fill="none"><path fill="currentColor" d="M12.2 11.6H11.9c-2.9 0-5-2.3-5-5.2a5.2 5.2 0 1 1 5.3 5.2ZM12 2.8c-2 0-3.7 1.6-3.7 3.6a3.7 3.7 0 0 0 3.9 3.7 3.7 3.7 0 0 0-.2-7.3ZM12.2 22.6c-2 0-4-.6-5.5-1.6-1.3-.9-2.1-2.1-2.1-3.5s.8-2.6 2.1-3.6c3-2 8-2 10.9 0 1.4 1 2.1 2.2 2.1 3.6S19 20 17.6 21a9.9 9.9 0 0 1-5.4 1.4Zm-4.6-7.4c-1 .6-1.5 1.4-1.5 2.3 0 .9.5 1.7 1.5 2.3a9 9 0 0 0 9.2 0c1-.6 1.4-1.4 1.4-2.3 0-.9-.5-1.7-1.4-2.3a9 9 0 0 0-9.2 0Z"/></svg>