<svg xmlns="http://www.w3.org/2000/svg" viewBox="0 0 36 36" fill="none"><path fill="currentColor" fill-rule="evenodd" d="m9.63 16.25 13.28-5.12a1.79 1.79 0 0 1 2.39 2.04l-2.23 10.5a1.99 1.99 0 0 1-3.13 1.2l-2.4-1.78-1.18 1.15c-.6.58-1.52.6-2.15.1l-.13-.13c-.18-.18-.3-.4-.39-.65l-1.05-3.44-2.9-.9a1.57 1.57 0 0 1-1.09-1.8l.04-.16c.14-.47.5-.84.94-1Zm11.32 6.56 1.97-9.27-10.65 4.1 1.61.51c.3.1.56.32.69.6l.06.15.9 3 1.12-1.09c.36-.34.88-.4 1.3-.2l.16.1 2.84 2.1Z" clip-rule="evenodd"/><path fill="currentColor" fill-rule="evenodd" d="M3.38 18a14.63 14.63 0 1 1 29.25 0 14.63 14.63 0 0 1-29.26 0Zm27 0a12.38 12.38 0 1 0-24.76 0 12.38 12.38 0 0 0 24.75 0Z" clip-rule="evenodd"/></svg>